<?xml version="1.0" standalone="no"?><!DOCTYPE svg PUBLIC "-//W3C//DTD SVG 1.1//EN" "http://www.w3.org/Graphics/SVG/1.1/DTD/svg11.dtd"><svg t="1692887848197" class="jp-icon3 jp-icon-selectable" fill="#616161" viewBox="0 0 1024 1024" version="1.1" xmlns="http://www.w3.org/2000/svg" p-id="1099" xmlns:xlink="http://www.w3.org/1999/xlink" width="200" height="200"><path d="M561.94395879 162.39229076a99.88791642 99.88791642 0 0 1 99.88791643-99.88791642h149.83187522a99.88791642 99.88791642 0 0 1 99.8879164 99.88791642v699.21541848a99.88791642 99.88791642 0 0 1-99.8879164 99.88791642h-149.83187522a99.88791642 99.88791642 0 0 1-99.88791643-99.88791642V162.39229076z m249.71979165 0h-149.83187522v699.21541848h149.83187522V162.39229076zM112.44833316 162.39229076a99.88791642 99.88791642 0 0 1 99.8879164-99.88791642h149.83187522a99.88791642 99.88791642 0 0 1 99.88791643 99.88791642v699.21541848a99.88791642 99.88791642 0 0 1-99.88791643 99.88791642H212.33624956a99.88791642 99.88791642 0 0 1-99.8879164-99.88791642V162.39229076z m249.71979162 0H212.33624956v699.21541848h149.83187522V162.39229076z" p-id="1100"></path></svg>