<?xml version="1.0" standalone="no"?><!DOCTYPE svg PUBLIC "-//W3C//DTD SVG 1.1//EN" "http://www.w3.org/Graphics/SVG/1.1/DTD/svg11.dtd"><svg t="1693229014938" class="jp-icon3 jp-icon-selectable"  viewBox="0 0 1024 1024" fill="#616161" version="1.1" xmlns="http://www.w3.org/2000/svg" p-id="1056" xmlns:xlink="http://www.w3.org/1999/xlink" width="200" height="200"><path d="M689.09960938 169.578125c0-28.125-23.02734375-51.24023438-51.24023438-51.24023438H177.13671875c-28.125 0-51.24023438 23.02734375-51.24023438 51.24023438v166.37695313h563.203125V169.578125zM689.09960938 483.171875c-116.63085938 0-211.20117188 94.5703125-211.20117188 211.20117188s94.5703125 211.20117188 211.20117188 211.20117187 211.20117188-94.5703125 211.20117187-211.20117188-94.5703125-211.20117188-211.20117188-211.20117187zM831.04296875 718.63085938H713.35742188V836.31640625c0 15.29296875-12.39257813 27.68554688-27.68554688 27.68554688s-27.68554688-12.39257813-27.68554688-27.68554688V718.63085938h-117.77343749c-15.29296875 0-27.68554688-12.39257813-27.68554688-27.68554688s12.39257813-27.68554688 27.68554688-27.68554688H657.8984375v-117.77343749c0-15.29296875 12.39257813-27.68554688 27.68554688-27.68554688s27.68554688 12.39257813 27.68554687 27.68554688V663.171875h117.7734375c15.29296875 0 27.68554688 12.39257813 27.68554688 27.68554688 0 15.38085938-12.39257813 27.7734375-27.68554688 27.77343749z" p-id="1057"></path><path d="M689.09960938 439.05078125v-51.85546875H125.89648437v198.36914063h344.53125001C509.62695312 502.33203125 592.15625 443.88476562 689.09960938 439.05078125zM452.67382812 636.8046875H125.89648437v159.9609375c0 28.125 23.02734375 51.24023438 51.24023438 51.24023438h320.36132813c-32.25585938-42.80273438-51.59179688-95.88867188-51.59179688-153.63281251 0-19.77539063 2.4609375-39.0234375 6.76757812-57.56835937z" p-id="1058"></path></svg>