<?xml version="1.0" standalone="no"?><!DOCTYPE svg PUBLIC "-//W3C//DTD SVG 1.1//EN" "http://www.w3.org/Graphics/SVG/1.1/DTD/svg11.dtd"><svg t="1692888375000" class="jp-icon3 jp-icon-selectable" fill="#616161" viewBox="0 0 1024 1024" version="1.1" xmlns="http://www.w3.org/2000/svg" p-id="995" xmlns:xlink="http://www.w3.org/1999/xlink" width="200" height="200"><path d="M912.1094163 112.99353031A360.20527408 360.20527408 0 0 0 669.76537917 16.03649739a334.44914062 334.44914062 0 0 0-236.27653627 96.95832746l-78.75841391 85.04728084a49.63777549 49.63777549 0 0 0 0 78.75841389 61.33004515 61.33004515 0 0 0 82.23424918-13.23665382c17.81284661-19.35852531 75.28387318-71.69929671 75.28387318-71.69929671a219.95111411 219.95111411 0 0 1 157.51682782-66.62470668 245.26581002 245.26581002 0 0 1 163.30859203 66.51337638 234.40204483 234.40204483 0 0 1 0 321.10245104l-84.82462025 84.8259148a52.39514201 52.39514201 0 0 0-18.2012081 36.34675105 43.18579675 43.18579675 0 0 0 18.2012081 36.34545651 57.68980354 57.68980354 0 0 0 42.41166286 12.13370722 86.09456229 86.09456229 0 0 0 36.34675104-12.13370722l84.8259148-84.82591478a354.52484014 354.52484014 0 0 0 91.11219262-242.34274261 301.35685878 301.35685878 0 0 0-90.83775051-230.21032991zM591.00567072 736.94285369l-84.66021389 78.7584139a219.95111411 219.95111411 0 0 1-157.51812234 66.62470669 245.26581002 245.26581002 0 0 1-163.58432871-66.62470669 234.40204483 234.40204483 0 0 1 0-321.10245104s56.36678542-54.54666462 76.44248494-76.22241344 29.83910717-61.55011666 8.93490315-81.29441436a55.15380306 55.15380306 0 0 0-79.8613605 7.33485383c-24.9289235 26.47330765-78.3726415 77.21402975-78.37264151 77.21402976a360.26093922 360.26093922 0 0 0-96.90395685 242.56410864 334.50480577 334.50480577 0 0 0 96.90395685 236.27653626 350.4444555 350.4444555 0 0 0 236.27653626 90.78208537 334.44914062 334.44914062 0 0 0 236.27524171-96.959622l78.75970845-78.75841391a56.64252208 56.64252208 0 0 0 0-78.75970845 61.16434427 61.16434427 0 0 0-72.69220756 0.16699544z m-260.57372509-121.28011252L617.31198293 328.78399842q38.99925997-38.99925997 77.99851995 0t0 77.99851995L408.43176012 693.66255565q-38.99925997 38.99925997-77.99851994 0t0-77.99851994z" p-id="996"></path></svg>