<?xml version="1.0" standalone="no"?><!DOCTYPE svg PUBLIC "-//W3C//DTD SVG 1.1//EN" "http://www.w3.org/Graphics/SVG/1.1/DTD/svg11.dtd"><svg t="1694333558419" class="icon" viewBox="0 0 1024 1024" version="1.1" xmlns="http://www.w3.org/2000/svg" p-id="1116" xmlns:xlink="http://www.w3.org/1999/xlink" width="200" height="200"><path d="M512 62C263.44999971 62 62 263.44999971 62 512s201.44999971 450 450 450 450-201.44999971 450-450S760.55000029 62 512 62z m0 700.01250029A50.02499971 50.02499971 0 1 1 511.96249971 662.00000029 50.02499971 50.02499971 0 0 1 512 762.01250029z m47.62500029-200.21250058h0.1125a53.17499971 53.17499971 0 0 1-47.28750029 49.12500058c1.8 0.225 3.41250029 1.0125 5.24999971 1.0125h-10.38749942c1.8 0 3.375-0.86249971 5.13749971-0.97500058a51.93749971 51.93749971 0 0 1-46.72500029-49.12499971l-11.475-249.75a47.73750029 47.73750029 0 0 1 48.00000058-50.13749971h23.09999942a46.575 46.575 0 0 1 47.62500029 50.09999942l-13.31250029 249.75z" fill="#B94343" p-id="1117"></path></svg>