<?xml version="1.0" standalone="no"?><!DOCTYPE svg PUBLIC "-//W3C//DTD SVG 1.1//EN" "http://www.w3.org/Graphics/SVG/1.1/DTD/svg11.dtd"><svg t="1695519692843" class="icon" viewBox="0 0 1024 1024" version="1.1" xmlns="http://www.w3.org/2000/svg" p-id="1730" xmlns:xlink="http://www.w3.org/1999/xlink" width="200" height="200"><path d="M588.15146666 172.83413333c-8.6016-23.3472-302.848-137.59146667-306.51733333-125.32053333-54.0672 14.1312-76.1856 76.1856-113.0496 115.49013333l-82.31253334-4.9152C50.03946666 204.8 30.97599999 252.68906667 43.89546666 301.84106667c46.67733333 63.88053333 100.74453333 117.93066667 133.90506667 197.18826666 2.4576 37.4784 161.57013333 3.6864 195.95946666-3.6864-46.67733333 33.1776-87.21066667 84.77013333-69.41013333 234.05226667 15.9744 70.02453333 27.0336 148.03626667 167.69706667 226.67946667 18.432 10.42773333 57.1392 22.71573333 80.4864 31.31733333 22.71573333 10.4448 49.152 14.7456 124.07466666-7.9872 43.6224-18.432 90.29973333-30.08853333 132.69333334-48.52053333l-50.97813334 2.4576c-70.0416 1.2288-124.70613333 6.7584-141.29493333-12.9024l-64.512-112.41813334 37.4784-73.09653333c52.224 5.5296 69.4272 47.90613333 115.49013333 63.88053333l54.0672-39.936c157.25226667 92.7744 219.904-58.96533333 237.73866667-176.91306666-1.86026667-47.90613333-104.448 15.36-97.6896-7.3728 2.4576-51.59253333-39.936-119.17653333-66.95253333-171.99786667l31.3344-122.24853333c14.11413333-12.9024-66.3552-148.65066667-132.096-165.23946667-57.12213333-15.36-143.73546667 57.73653333-143.73546667 57.73653333z" fill="#FDEE21" p-id="1731"></path><path d="M846.79679999 432.05973333c0.6144 12.9024 0.6144 28.8768 1.8432 38.7072 0 7.3728-6.144 7.9872-10.4448 9.216l30.72 11.0592c6.144 10.4448 11.0592 20.2752 15.9744 30.72 5.5296 25.17333333 1.2288 25.78773333-2.4576 27.648-11.0592 0-22.1184 0-32.5632-1.86026666 4.9152 2.4576 5.5296 4.3008 6.144 7.3728 0.6144 5.5296-3.072 13.5168-9.216 21.504 9.216 4.9152 25.8048 9.8304 38.0928 14.7456l14.1312-31.3344c-6.7584-45.44853333-25.8048-87.22773333-52.224-127.77813334z m57.1392 153.58293334c17.18613333 7.3728 40.53333333 4.9152 73.09653334-11.6736 4.9152-3.6864 9.216-1.2288 0.6144 4.3008-43.008 38.0928-63.26613333 19.0464-73.728 7.3728z" fill="#C8C037" p-id="1732"></path><path d="M980.08746666 569.05386667c4.9152 9.8304 1.8432 17.2032 0 25.78773333-5.5296 41.7792-18.432 74.3424-43.6224 108.73173333-82.31253333 132.69333333-165.85386667 49.7664-232.192-4.3008l-27.648 68.8128c-1.2288 6.144-7.3728 10.4448 35.61813333 29.47413334l43.6224-30.72c167.08266667 126.5664 285.0304-178.1248 224.22186667-197.80266667zM724.53119999 687.616c-11.0592 0.6144-44.83413333 12.288-46.08 19.02933333l15.36-22.71573333 30.72 3.6864z m-22.10133333-140.68053333c1.8432 0 11.6736 2.4576 11.0592 1.8432-1.2288-0.6144 0 14.1312 3.072 21.504l-12.288 26.40213333c23.33013333-26.40213333 59.57973333-25.17333333 93.35466667-28.24533333l-15.95733334-9.8304c3.072-9.216-0.6144-16.5888-1.8432-24.576l-77.39733333 12.9024z m57.12213333-79.24053334c-24.576 7.3728-48.5376 20.2752-64.512 46.67733334 12.288-43.60533333 14.7456-41.76213333 18.432-44.21973334 17.2032-7.9872 31.3344-3.072 46.08-2.4576z" fill="#C8C037" p-id="1733"></path><path d="M626.85866666 979.4048c-30.08853333 33.1776-97.05813333-2.4576-152.33706667-20.8896-141.29493333-89.68533333-168.94293333-174.45546667-170.78613333-257.3824-7.35573333-119.17653333 29.4912-187.97226667 75.5712-204.56106667-30.72 58.96533333-44.8512 164.62506667-30.72 243.2512 11.6736 43.6224 11.6736 117.33333333 84.77013333 157.26933334 35.6352 20.2752 26.4192 35.61813333 50.3808 54.66453333 26.40213333 20.8896 100.74453333 40.5504 143.12106667 27.648z m44.8512-549.18826667c-50.9952-71.85066667-122.24853333-98.90133333-202.71786667-101.97333333 15.9744-5.5296 32.54613333-7.9872 48.52053334-15.9744 3.6864-4.28373333 2.4576-11.65653333 1.2288-19.02933333-77.39733333-20.2752-126.53226667-45.4656-188.58666667-68.8128l167.08266667 40.5504c113.03253333 4.3008 103.20213333 32.5632 174.47253333 165.23946666z" fill="#FCF6A0" p-id="1734"></path><path d="M726.39146666 395.19573333c-37.4784-53.43573333-73.728-118.56213333-123.47733333-160.32426666-119.17653333-53.4528-237.73866667-93.37173333-375.94453334-129.62133334l44.21973334-56.5248c146.82453333 33.792 284.43306667 89.7024 407.89333333 181.84533334 21.504 52.82133333 35.0208 105.64266667 47.3088 164.62506666z m75.55413333-94.60053333s-20.8896-47.29173333-31.31733333-65.10933333c-23.9616-26.4192-35.6352-75.5712-84.7872-98.90133334 15.36 4.3008 25.8048-0.6144 57.1392 27.648l49.74933333 93.96906667 9.216 42.3936z" fill="#FCF6A0" p-id="1735"></path><path d="M828.38186666 382.29333333c4.9152-41.1648 14.1312-106.27413333 3.6864-132.69333333-29.4912-39.30453333-58.9824-80.46933333-88.45653333-117.93066667-4.9152-4.31786667-8.61866667-11.07626667-12.288-15.36 41.76213333 11.04213333 85.38453333 39.936 143.73546666 154.18026667l-46.67733333 111.78666667z" fill="#FCF6A0" p-id="1736"></path><path d="M652.66346666 387.2256c-16.57173333-12.9024-31.31733333-58.9824-56.49066667-68.8128-23.36426667-1.82613333-31.96586667-9.216-62.6688-3.072 11.0592-5.51253333 21.504-12.88533333 33.16053334-16.57173333 7.9872-1.8432 15.36 0 23.3472 1.2288 1.8432-0.6144 3.072-1.8432 2.4576-3.6864-30.72-19.0464-93.98613333-19.0464-136.99413334-30.1056 49.7664 1.8432 104.448-1.2288 141.90933334 11.0592 30.1056 26.4192 39.936 76.8 55.296 109.96053333z m90.9312-222.99306667c6.7584 0.6144 43.60533333 58.9824 45.44853333 68.79573334 3.072 21.504 10.4448 44.8512 12.9024 67.584-6.144-21.504-12.9024-43.008-20.8896-63.8976-2.4576-6.144-8.6016-19.02933333-25.78773333-38.07573334-7.9872-13.5168-9.8304-23.9616-11.6736-34.4064z m125.30346667 318.80533334h-15.95733334l17.18613334 4.31786666-1.2288-4.3008z m-108.10026667-15.34293334c-15.9744-1.8432-31.9488-2.4576-47.9232 1.2288-6.7584 8.6016-6.7584 17.8176-9.8304 25.8048 19.0464-21.504 27.0336-22.7328 57.73653333-27.0336z m217.4464 109.96053334c-8.6016 6.7584-9.8304 13.5168-36.23253333 21.504-19.0464 4.3008-30.1056-3.072-38.7072-13.5168 13.5168 3.6864 15.9744 14.1312 52.224 2.4576l22.71573333-10.4448z m-79.24053333 4.3008c-6.144 17.8176-13.5168 35.0208-20.2752 51.6096-16.57173333 19.64373333-9.216 8.58453333-34.38933334 38.07573333 7.9872-12.288 18.432-23.9616 23.33013334-36.864 3.6864-8.6016 8.6016-17.18613333 10.4448-24.576-6.7584-3.072-19.64373333-3.66933333-21.504-2.44053333-22.10133333 12.9024-25.78773333 26.40213333-38.69013334 39.936 9.216-14.7456 17.2032-31.3344 28.2624-44.8512 1.2288-1.8432 9.216-1.8432 14.11413334-3.072-7.97013333-1.2288-22.10133333-4.3008-23.33013334-3.6864-14.1312 3.6864-22.1184 15.9744-33.1776 23.9616 7.9872-11.0592 14.7456-22.7328 24.576-32.5632 1.2288-1.2288 27.648 1.2288 41.14773334 6.7584v5.5296l7.9872 3.072 6.144-14.7456 15.36-6.144z m-173.84106667 105.64266666c-3.6864-1.21173333-35.0208-5.51253333-35.0208-4.28373333-12.288 8.6016-13.5168 16.5888-13.5168 23.9616 19.6608-19.6608 19.0464-19.6608 48.5376-19.6608z m-23.9616-141.27786666s22.7328-3.072 22.1184-1.2288c-1.8432 7.9872 3.072 27.0336 3.072 23.9616l-12.9024 10.4448c26.4192-13.5168 54.66453333-10.4448 82.944-12.9024 0 0-23.97866667-6.7584-22.13546667-6.7584 5.5296-0.6144-1.2288-24.576-3.072-25.1904 4.3008-1.2288 9.216-2.44053333 13.5168-3.66933334-34.38933333-8.61866667-54.05013333-3.70346667-83.54133333 15.36z" fill="#000000" p-id="1737"></path><path d="M895.93173333 563.5072l-4.9152 2.4576c-0.6144-14.7456-16.5888-13.49973333-29.4912-13.49973333l-11.0592-2.4576c3.072 3.072 13.5168 3.072 9.216 9.216-3.6864 1.82613333-4.9152 9.81333333-6.7584 16.57173333h-6.144c10.4448 4.3008 20.2752 7.3728 31.3344 12.288l6.7584 1.2288 15.9744-8.6016-4.9152-17.2032z" fill="#000000" p-id="1738"></path><path d="M746.64959999 553.07946667c-2.4576-4.9152-15.36-4.3008-17.8176-1.2288-2.4576 2.4576 0 19.6608 2.4576 16.5888 4.3008-3.6864 9.8304-4.9152 15.9744-4.9152 1.2288-3.072 0.6144-6.7584-0.6144-10.4448z m122.24853334 25.1904c1.2288-0.6144 3.6864-9.216 3.072-11.6736-1.8432-6.144-13.5168-4.9152-13.5168-4.9152-3.072 1.8432-5.5296 11.0592-4.3008 14.1312 0.6144 3.072 12.9024 3.6864 14.7456 2.4576z" fill="#FFFFFF" p-id="1739"></path><path d="M362.10346666 871.25333333l7.3728 0.63146667c44.21973333 21.504 117.33333333 54.05013333 223.60746667 36.864l16.5888 26.40213333c-46.6944 22.7328-97.0752 17.2032-143.75253334 19.0464l-103.81653333-82.944z m-63.88053333-172.61226666l22.10133333 93.37173333c59.5968 37.4784 161.57013333 79.872 246.34026667 76.1856l-19.0464-43.008c-176.91306667-36.864-191.65866667-84.77013333-249.3952-126.54933333z m55.296-191.04426667c11.04213333 72.4992 25.17333333 127.16373333 88.43946666 173.22666667 38.7072 27.648 76.8 55.296 123.47733334 78.0288 0 0-4.3008 21.504-7.3728 20.8896-138.83733333-15.36-240.19626667-130.23573333-252.4672-183.07413334 11.65653333-39.936 28.85973333-65.10933333 47.90613333-89.07093333z m66.32106666-41.14773333c18.432 80.46933333 62.6688 161.55306667 106.27413334 235.264 15.9744 20.2752 20.2752 29.4912 44.8512 41.7792 33.1776 10.4448 57.12213333 7.9872 81.08373333 6.144-6.7584-12.288-12.288-25.1904-20.2752-36.864-54.05013333-43.008-29.47413333-82.31253333-14.7456-106.88853334-30.08853333-7.3728-70.02453333-23.94453333-75.55413333-45.44853333-8.6016-68.8128-3.6864-90.29973333 4.9152-125.93493333-40.53333333 8.6016-82.31253333 17.2032-126.54933334 31.9488z" fill="#000000" p-id="1740"></path><path d="M269.96053333 40.1408c-13.5168 8.58453333-26.4192 21.504-40.53333334 35.61813333-23.3472 23.9616-38.7072 47.3088-62.0544 64.512-4.9152 4.3008-17.8176 10.4448-34.4064 11.6736-7.9872 0.59733333-12.88533333 1.82613333-27.01653333 0-12.9024-6.7584-24.576-2.47466667-36.2496 11.65653334-12.9024 18.432-29.4912 53.4528-36.2496 76.1856-14.11413333 55.89333333 21.504 102.57066667 55.9104 138.20586666 30.72 29.4912 47.90613333 48.5376 60.19413333 75.5712 9.216 17.80053333 16.5888 41.76213333 23.9616 58.96533334 2.4576 5.5296 2.4576 5.5296 9.8304 6.7584 15.9744 3.6864 38.0928 3.6864 57.73653334 4.9152 8.6016 0 20.2752 0 31.3344-1.2288 15.36-3.072 33.1776-5.5296 47.9232-11.0592 14.72853333-3.6864 27.648-8.6016 39.30453333-12.9024-1.2288 4.9152-12.9024 9.8304-17.2032 16.5888-39.936 57.12213333-50.97813333 108.11733333-43.60533333 187.97226666 3.6864 35.6352 12.288 65.10933333 24.576 98.90133334 5.51253333 15.36 17.80053333 39.936 28.85973333 55.9104 34.4064 48.52053333 110.592 109.96053333 216.84906667 133.90506666a153.2416 153.2416 0 0 0 59.5968-4.3008c52.20693333-15.9744 159.70986667-53.43573333 159.70986666-53.43573333s-95.232 7.9872-138.22293333 3.6864c-9.8304-1.8432-20.8896-1.8432-28.24533333-9.216-1.2288-1.2288-5.5296-9.8304-2.4576-10.4448 3.6864 0 14.7456-4.3008 31.31733333-6.144-35.61813333-3.6864-35.00373333-3.6864-37.46133333-10.4448a375.12533333 375.12533333 0 0 0-16.5888-35.61813333c15.36 1.2288 50.36373333 3.072 62.03733333-8.6016 0 0-20.2752 2.4576-38.69013333 0-6.144-0.6144-16.5888-4.3008-19.6608-5.5296-7.9872-3.072-14.7456-4.3008-16.5888-6.144-3.072-7.3728-4.9152-9.8304-7.9872-19.0464-4.9152-12.9024-4.9152-27.0336-6.144-39.936 11.6736 14.7456 27.0336 27.0336 46.6944 33.1776 0-0.6144 25.78773333 11.0592 44.83413333 4.9152l3.6864-1.2288c0 0.6144-12.288 1.2288-17.2032-1.2288-38.07573333-15.9744-43.60533333-30.1056-49.74933333-37.4784l-16.5888-24.576c4.9152-9.81333333 7.9872-10.42773333 14.1312-10.42773334 19.6608 2.4576 28.8768 3.6864 40.53333333 1.2288 7.9872 17.18613333 10.4448 33.792 28.8768 46.08 62.0544 18.41493333 75.55413333-5.54666667 90.91413333-26.43626666 44.8512 33.1776 117.94773333 43.008 168.32853334 0.6144 64.49493333-74.32533333 84.77013333-191.65866667 79.24053333-198.41706667-7.9872-13.49973333-18.432-27.648-27.648-25.78773333-32.54613333 8.6016-44.21973333 25.17333333-76.16853333 21.504 3.6864 0 10.4448 0 10.4448-0.63146667 2.4576-27.01653333 0-39.936-1.2288-42.37653333-9.8304-21.504-22.7328-44.2368-31.3344-60.8256-2.4576-3.6864-9.216-30.08853333-20.2752-40.53333334-4.9152-4.3008-16.57173333-14.7456-16.57173334-14.7456l-1.2288 11.6736s4.89813333 0.6144 6.144 7.9872c6.74133333 27.0336 40.53333333 91.52853333 42.99093334 94.60053334 12.288 19.6608 1.2288 43.60533333 10.4448 57.12213333 0.6144 1.8432 18.432 0 32.5632 0.6144 22.71573333-4.9152 21.504-14.7456 41.14773333-16.5888 13.5168-1.2288 14.7456 23.9616 14.1312 25.8048-2.4576 27.648-11.0592 58.9824-23.3472 88.45653333-26.40213333 50.9952-55.89333333 97.05813333-98.28693333 103.20213334-51.59253333 9.216-78.01173333-13.5168-105.64266667-27.648l-10.46186667 9.216c-36.23253333 36.2496-79.24053333 32.5632-96.42666666-14.11413334-8.61866667-18.432-20.29226667-29.4912-30.1056-44.8512l-51.6096 37.4784c-4.3008 8.6016-9.8304 22.71573333-15.9744 38.07573334-4.3008 11.0592-7.9872 29.4912-7.9872 44.8512-6.7584 11.0592 22.7328 57.12213333 41.7792 84.77013333 5.5296 7.9872 15.9744 22.7328 15.9744 23.3472 3.6864 9.8304 11.6736 18.432 12.288 19.0464 35.00373333 45.44853333-43.6224 35.00373333-60.2112 31.93173333-31.93173333-4.9152-63.26613333-18.432-92.75733334-36.23253333-1.8432-1.2288-3.6864-1.8432-4.9152-3.072-35.00373333-22.1184-66.95253333-50.3808-94.60053333-78.01173333-16.5888-18.432-31.9488-56.5248-43.60533333-82.944-17.2032-64.512-41.7792-176.29866667 25.17333333-261.0688 4.3008-4.9152 8.6016-12.9024 12.9024-14.7456a181.8112 181.8112 0 0 1 64.512-27.648l-2.4576-14.7456c-11.6736 2.4576-50.3808 17.2032-61.44 22.7328-25.1904 7.3728-46.08 14.7456-78.01173333 22.7328a128.42666667 128.42666667 0 0 1-30.72 0c-22.7328-3.072-62.03733333-0.6144-64.512-2.4576-15.34293333-21.504-19.62666667-60.80853333-33.77493334-81.69813334-8.6016-11.0592-17.8176-20.2752-27.648-29.4912-33.792-33.792-63.26613333-66.33813333-71.25333333-101.35893333-1.8432-10.4448-7.3728-20.8896-4.3008-50.97813333 7.9872-28.2624 21.504-51.6096 44.2368-74.3424 23.3472 0.6144 46.67733333 0.6144 65.10933333 4.3008 8.6016 1.2288 25.8048 3.6864 43.6224 10.4448 45.44853333 16.5888 105.04533333 44.8512 105.04533334 44.8512-44.8512-24.576-95.232-56.5248-126.54933334-63.2832-4.9152-0.6144-7.3728-3.072-9.216-6.7584 47.9232-28.24533333 56.5248-60.80853333 87.84213334-90.28266667 14.1312-6.144 19.6608-9.216 31.9488-10.46186667 112.41813333 17.8176 183.67146667 62.6688 239.58186666 92.7744 22.71573333 12.288 43.60533333 21.504 63.26613334 33.16053334 17.2032 5.5296 69.41013333 44.8512 84.77013333 66.33813333 15.36 32.5632 27.0336 68.1984 37.4784 102.6048 7.3728 35.00373333 14.1312 49.13493333 14.1312 49.13493333s-6.144-28.8768-5.5296-34.4064c6.74133333 2.4576 22.10133333 7.3728 28.24533333 6.7584 0 0-28.85973333-14.7456-32.54613333-27.648-12.288-41.76213333-23.9616-107.48586667-27.648-110.55786666-9.216-11.6736-47.3088-40.5504-70.656-54.0672-8.58453333-4.9152-13.49973333-8.6016-14.11413333-10.4448 7.3728-7.3728 16.5888-17.8176 25.17333333-23.9616 7.9872-6.144 15.36-12.88533333 26.4192-17.18613334 48.5376-22.1184 76.8 8.6016 82.944 2.4576 0 0-10.4448-12.288-5.54666667-9.8304 4.9152 2.4576 20.2752 5.5296 22.1184 7.3728 17.8176 14.11413333 64.512 64.49493333 92.16 118.54506667 6.74133333 12.9024 9.216 21.504 6.144 37.4784-3.072 15.9744-5.54666667 24.576-9.216 35.0208-3.072 6.7584-20.2752 55.296-20.2752 62.03733333-3.6864 26.4192 11.6736 59.5968 11.6736 59.5968 0-9.216-0.6144-14.1312 0-20.2752l1.2288-11.6736s-0.6144-3.072-0.6144-4.3008c0.59733333-7.9872 2.4576-14.7456 3.072-19.0464 5.51253333-34.38933333 15.36-59.57973333 26.40213334-90.29973333 3.072-7.3728 7.3728-11.6736 7.3728-17.8176 0-10.4448-9.216-23.9616-15.9744-38.07573333-7.3728-15.36-15.9744-30.72-25.17333334-45.4656-23.9616-35.0208-44.8512-62.03733333-82.3296-79.24053334-10.4448-4.9152-52.224-9.216-66.33813333-6.7584-17.2032 3.6864-32.5632 7.3728-44.2368 14.7456-19.02933333 12.288-33.792 30.72-50.97813333 41.76213334-38.0928-19.0464-56.5248-33.792-60.2112-35.61813334a1570.95253333 1570.95253333 0 0 0-79.24053334-39.936c-15.36-15.36-102.57066667-47.29173333-183.05706666-53.43573333z m490.20586666 715.04213333c-23.33013333-18.432-43.60533333-37.4784-56.50773333-57.1392-4.3008 22.7328-19.6608 39.3216-31.9488 55.296-2.4576 3.66933333-4.3008 9.216 7.3728 25.17333334 3.072 4.3008 14.7456 4.9152 22.1184 4.9152-7.9872-6.144-19.6608-12.288-21.504-17.8176 14.1312 9.216 26.4192 12.288 38.0928 10.4448 2.4576 0 6.144-3.072 8.6016-7.3728 4.9152-11.0592 9.216-13.49973333 13.49973333-16.57173334l9.216 11.65653334 11.0592-8.58453334z" fill="#000000" p-id="1741"></path></svg>