<?xml version="1.0" standalone="no"?><!DOCTYPE svg PUBLIC "-//W3C//DTD SVG 1.1//EN" "http://www.w3.org/Graphics/SVG/1.1/DTD/svg11.dtd"><svg t="1695519673300" class="jp-icon3 jp-icon-selectable" fill="#3480AF"  viewBox="0 0 1024 1024" version="1.1" xmlns="http://www.w3.org/2000/svg" p-id="1444" xmlns:xlink="http://www.w3.org/1999/xlink" width="200" height="200"><path d="M278.44266667 225.77493333c-10.3936 0-17.42506667 1.26293333-24.74666667 2.9696v1.19466667h1.26293333c4.88106667 9.3696 13.19253333 16.21333333 19.33653334 24.61013333 4.864 9.64266667 9.02826667 19.28533333 13.89226666 28.84266667l1.26293334-1.3312c8.4992-5.97333333 12.6464-15.53066667 12.6464-30.03733333-3.61813333-4.23253333-4.1472-8.48213333-7.2192-12.62933334-3.61813333-6.0416-11.38346667-9.02826667-16.24746667-13.80693333l-0.18773333 0.18773333z m615.76533333 524.01493334c-48.3328-1.26293333-85.79413333 3.60106667-117.12853333 16.9472-9.04533333 3.61813333-23.48373333 3.61813333-24.74666667 15.06986666 4.9664 4.77866667 5.6832 12.62933333 9.9328 19.28533334 7.2192 12.10026667 19.69493333 28.24533333 31.232 36.7104 12.66346667 9.9328 25.2928 19.49013333 38.57066667 27.97226666 23.48373333 14.42133333 50.1248 22.9888 73.14773333 37.51253334 13.09013333 8.48213333 26.45333333 19.21706667 39.7312 28.22826666 6.58773333 4.5056 10.83733333 12.62933333 19.31946667 15.53066667v-1.80906667c-4.1472-5.4272-5.4272-13.2608-9.48906667-19.3024-6.0416-6.0416-12.10026667-11.4688-18.05653333-17.408a290.83306667 290.83306667 0 0 0-62.75413334-60.89386666c-19.31946667-13.1584-61.5936-31.57333333-69.5296-53.6576l-1.1776-1.26293334c13.19253333-1.1776 28.89386667-5.95626667 41.54026667-9.55733333 20.49706667-5.41013333 39.28746667-4.23253333 60.50133333-9.55733333 9.55733333-2.44053333 19.23413333-5.41013333 28.89386667-8.48213334v-5.41013333c-10.83733333-10.82026667-18.96106667-25.53173333-30.1568-35.61813333a800.68266667 800.68266667 0 0 0-99.6864-74.24c-18.96106667-12.0832-42.99093333-19.83146667-62.94186667-30.12266667-7.2192-3.60106667-19.31946667-5.41013333-23.48373333-11.43466667-10.83733333-13.17546667-17.152-30.68586667-24.832-46.37013333a1594.4192 1594.4192 0 0 1-49.39093333-104.89173333c-10.83733333-23.63733333-17.42506667-47.17226667-30.70293334-68.8128-62.29333333-102.5536-129.75786667-164.69333333-233.5232-225.4848-22.28906667-12.62933333-49.01546667-18.03946667-77.29493333-24.71253334-15.06986667-0.7168-30.1568-1.80906667-45.14133333-2.44053333-9.9328-4.23253333-19.5072-15.70133333-27.98933334-21.17973333-34.304-21.6576-123.17013333-68.5568-148.46293333-6.5024-16.24746667 39.15093333 24.1152 77.73866667 38.10986667 97.5872 10.3936 13.80693333 23.48373333 29.57653333 30.72 45.09013333 4.23253333 10.46186667 5.39306667 21.1968 9.64266666 32.11946667 9.5744 26.50453333 18.688 56.09813333 31.3344 80.896 6.58773333 12.62933333 13.824 25.89013333 22.30613334 37.25653333 4.88106667 6.57066667 13.19253333 9.64266667 15.08693333 20.48-8.4992 12.25386667-9.04533333 30.1056-13.90933333 45.07306667-21.67466667 68.26666667-13.19253333 152.69546667 17.5104 202.92266666 9.65973333 14.98453333 32.69973333 48.1792 63.488 35.46453334 27.0848-10.83733333 21.12853333-45.1072 28.89386666-75.3152 1.80906667-7.2192 0.63146667-11.99786667 4.33493334-16.86186667v1.34826667c8.48213333 16.96426667 16.98133333 33.10933333 24.74666666 50.05653333 18.60266667 29.57653333 51.0976 60.24533333 78.2848 80.72533333 14.4384 10.82026667 25.9072 29.57653333 43.9808 36.2496v-1.792h-1.36533333c-3.87413333-5.23946667-9.02826667-7.76533333-13.89226667-11.99786666a310.76693333 310.76693333 0 0 1-31.60746666-36.07893334 789.84533333 789.84533333 0 0 1-67.46453334-109.85813333c-9.9328-18.944-18.24426667-39.3216-26.18026666-57.99253333-3.61813333-7.2192-3.61813333-18.03946667-9.65973334-21.64053334-9.04533333 13.1584-22.30613333 24.6272-28.89386666 40.8576-11.4688 25.97546667-12.6464 57.89013333-16.98133334 91.0848-2.44053333 0.63146667-1.26293333 0-2.44053333 1.26293334-19.31946667-4.69333333-25.9072-24.71253333-33.14346667-41.472-18.05653333-42.8544-21.02613333-111.6672-5.41013333-161.00693334 4.23253333-12.62933333 22.30613333-52.48 15.06986667-64.58026666-3.7888-11.43466667-15.70133333-18.0224-22.28906667-27.30666667a223.40266667 223.40266667 0 0 1-21.67466667-38.51946667c-14.45546667-33.7408-21.67466667-71.08266667-37.376-104.8064-7.23626667-15.59893333-19.88266667-31.91466667-30.17386666-46.26773333-11.4688-16.2304-24.1152-27.68213333-33.2288-46.8992-2.98666667-6.58773333-7.2192-17.49333333-2.44053334-24.71253333 1.26293333-4.864 3.7888-6.7584 8.48213334-8.12373334 7.95306667-6.48533333 30.2592 1.9968 38.10986666 5.59786667 22.30613333 9.0112 41.09653333 17.49333333 59.78453334 30.12266667 8.48213333 5.95626667 17.6128 17.408 28.45013333 20.3776h12.62933333c19.33653333 4.2496 41.09653333 1.26293333 59.15306667 6.58773333 32.0512 10.27413333 60.94506667 25.25866667 86.86933333 41.48906667a537.1392 537.1392 0 0 1 188.27946667 206.16533333c7.2192 13.89226667 10.37653333 26.624 16.96426667 41.04533333 12.6464 29.76426667 28.2624 59.8016 41.09653333 88.576 12.62933333 28.39893333 24.832 57.344 42.97386667 80.896 9.04533333 12.62933333 45.32906667 19.21706667 61.5936 25.78773334 11.99786667 5.41013333 30.70293333 10.37653333 41.54026666 16.96426666 20.75306667 12.62933333 40.99413333 27.05066667 60.48426667 40.96 9.9328 6.82666667 40.00426667 21.89653333 41.81333333 34.08213334z" p-id="1444"></path></svg>