<?xml version="1.0" standalone="no"?><!DOCTYPE svg PUBLIC "-//W3C//DTD SVG 1.1//EN" "http://www.w3.org/Graphics/SVG/1.1/DTD/svg11.dtd"><svg t="1695533447511" class="jp-icon-selectable" fill="#1296db" viewBox="0 0 1024 1024" version="1.1" xmlns="http://www.w3.org/2000/svg" p-id="1544" xmlns:xlink="http://www.w3.org/1999/xlink" width="200" height="200"><path d="M1034.27413333 812.57813333c-8.36266667-14.77973333-27.7504-40.0384-99.328-88.74666666a1169.3056 1169.3056 0 0 0-133.49546666-79.08693334c-32.63146667-88.30293333-95.81226667-202.78613333-188.0064-340.65066666-99.25973333-148.44586667-214.528-210.97813333-343.3472-186.19733334a807.04853333 807.04853333 0 0 0-43.65653334-40.20906666C193.9456 49.80053333 114.34666667 26.112 68.608 30.65173333c-20.71893333 2.08213333-36.28373333 9.65973333-46.25066667 22.49386667-23.10826667 29.76426667-15.39413333 72.6016 91.20426667 212.1728 20.2752 59.32373333 24.61013333 90.3168 24.61013333 105.91573333 0 32.9728 17.03253333 70.79253333 53.31626667 118.13546667l-34.13333333 116.80426667c-30.44693333 104.31146667 24.8832 239.24053333 76.3904 286.27626666 27.47733333 25.12213333 50.61973333 21.36746667 62.0544 16.896 22.9376-9.0112 41.43786667-31.4368 53.38453333-95.47093333a4682.7808 4682.7808 0 0 1 19.42186667 48.64c36.864 93.5936 72.9088 145.37386667 113.42506666 162.9184a34.16746667 34.16746667 0 0 0 27.136-62.60053333c-10.0352-4.36906667-37.6832-25.2928-77.1072-125.3376-33.24586667-84.41173333-57.4464-140.86826667-74.00106666-172.6464a34.37226667 34.37226667 0 0 0-37.6832-17.57866667 34.16746667 34.16746667 0 0 0-26.69226667 31.91466667c-4.13013333 97.10933333-13.9264 139.09333333-20.48 156.80853333C244.9408 803.49866667 200.53333333 701.61066667 222.8224 625.28853333c22.15253333-75.9808 35.19146667-120.45653333 39.08266667-133.59786666a34.06506667 34.06506667 0 0 0-6.28053334-31.232c-44.4416-54.5792-49.2544-80.62293333-49.2544-89.2928 0-31.4368-9.86453333-75.09333333-30.17386666-133.49546667a33.1776 33.1776 0 0 0-5.08586667-9.48906667c-57.41226667-74.78613333-78.50666667-112.2304-86.2208-130.01386666 27.3408 1.29706667 79.29173333 16.04266667 97.0752 31.3344a704.85333333 704.85333333 0 0 1 52.29226667 49.39093333 34.0288 34.0288 0 0 0 33.31413333 9.5232c106.87146667-27.648 201.5232 22.56213333 289.14346667 153.6 93.66186667 140.0832 155.88693333 253.91786667 184.96853333 338.36373333a34.13333333 34.13333333 0 0 0 17.47626667 19.6608 1071.5136 1071.5136 0 0 1 137.38666666 80.2816 1007.84 1007.84 0 0 1 21.4016 14.9504h-105.43786666a34.16746667 34.16746667 0 0 0-25.97546667 56.25173334 3305.33546667 3305.33546667 0 0 0 104.37973333 117.82826666 34.13333333 34.13333333 0 1 0 49.664-46.7968 2386.77333333 2386.77333333 0 0 1-53.41866666-59.01653333h117.41866666a34.16746667 34.16746667 0 0 0 29.696-50.96106667zM307.2 274.6368c13.5168 23.21066667 23.9616 39.8336 31.30026667 49.90293333 8.84053333 17.33973333 22.59626667 31.19786667 31.40266666 48.57173334l2.1504-2.11626667c15.49653333-10.61546667 27.648-52.80426667 2.93546667-80.52053333-12.83413333-19.38773333-54.44266667-18.8416-67.7888-15.83786667z" p-id="1545"></path></svg>