<?xml version="1.0" standalone="no"?><!DOCTYPE svg PUBLIC "-//W3C//DTD SVG 1.1//EN" "http://www.w3.org/Graphics/SVG/1.1/DTD/svg11.dtd"><svg t="1692887833925" class="jp-icon3 jp-icon-selectable" fill="#616161" viewBox="0 0 1024 1024" version="1.1" xmlns="http://www.w3.org/2000/svg" p-id="965" xmlns:xlink="http://www.w3.org/1999/xlink" width="200" height="200"><path d="M463.41688889 851.85422222V366.36444445H123.67644445v485.48977777h339.85422222z m0-582.54222222v-145.63555555A48.58311111 48.58311111 0 0 1 512 75.09333333h436.90666667a48.58311111 48.58311111 0 0 1 48.58311111 48.58311112v776.76088888a48.58311111 48.58311111 0 0 1-48.58311111 48.58311112H75.09333333a48.58311111 48.58311111 0 0 1-48.58311111-48.58311112V317.78133333a48.58311111 48.58311111 0 0 1 48.58311111-48.58311111h388.32355556z m97.05244444-97.05244445v679.59466667h339.85422222V172.14577778H560.46933333zM172.14577778 706.21866667h242.688V803.27111111H172.14577778v-97.05244444z m436.90666667 0h242.688V803.27111111H609.05244445v-97.05244444z m0-145.63555556h242.688V657.63555555H609.05244445v-97.05244444z m0-145.63555556h242.688V512H609.05244445v-97.05244445z m-436.90666667 145.63555556h242.688V657.63555555H172.14577778v-97.05244444z" p-id="966"></path></svg>