<?xml version="1.0" standalone="no"?><!DOCTYPE svg PUBLIC "-//W3C//DTD SVG 1.1//EN" "http://www.w3.org/Graphics/SVG/1.1/DTD/svg11.dtd"><svg t="1692879176917" class="jp-icon3 jp-icon-selectable" fill="#616161" viewBox="0 0 1024 1024" version="1.1" xmlns="http://www.w3.org/2000/svg" p-id="1088" xmlns:xlink="http://www.w3.org/1999/xlink" width="200" height="200"><path d="M512 1020.66417546c-240.74348763 0-435.99786469-65.14534761-435.99786469-145.33262154 0-43.85411855 0-91.81388367 0-145.33262157 0-12.64393809 6.32196903-24.63387936 15.40525788-36.3331554 48.61376191 62.60202674 217.63560079 108.99946618 420.59260681 108.99946618s371.97884488-46.39743943 420.59260681-108.99946618c9.08328886 11.69927604 15.40525789 23.68921732 15.40525788 36.3331554 0 42.07379394 0 86.72724192 0 145.33262157 0 80.18727395-195.29071023 145.33262157-435.99786469 145.33262154zM512 729.99893235c-240.74348763 0-435.99786469-65.14534761-435.99786469-145.33262157 0-43.89045172 0-91.77755051 0-145.33262156 0-7.70262894 2.90665244-15.18725895 6.83063321-22.59922266l0 0c2.21632248-4.65064389 5.12297492-9.22862147 8.57462467-13.73393274 48.61376191 62.56569358 217.63560079 108.99946618 420.59260681 108.99946618s371.97884488-46.43377259 420.59260681-108.99946618c3.48798291 4.50531127 6.39463534 9.08328886 8.57462467 13.73393274l0 0c3.88764763 7.41196371 6.83063322 14.89659371 6.83063321 22.59922266 0 42.07379394 0 86.69090876 0 145.33262156 0 80.18727395-195.29071023 145.33262157-435.99786469 145.33262157zM512 439.33368922c-240.74348763 0-435.99786469-65.10901446-435.99786469-145.33262157 0-22.96255421 0-47.23310201 0-72.66631078 0-23.10788683 0-47.08776938 0-72.66631079 0-80.22360711 195.25437707-145.33262157 435.99786469-145.33262154s435.99786469 65.10901446 435.99786469 145.33262154c0 22.67188896 0 46.72443783 0 72.66631079 0 22.23589111 0 45.70710948 0 72.66631078 0 80.22360711-195.29071023 145.33262157-435.99786469 145.33262157zM512 76.00213531c-160.51988052 0-290.66524313 32.48184092-290.66524313 72.66631077s130.14536261 72.66631078 290.66524313 72.66631079 290.66524313-32.48184092 290.66524313-72.66631079-130.14536261-72.66631078-290.66524313-72.66631077z" p-id="1089"></path></svg>