<?xml version="1.0" standalone="no"?><!DOCTYPE svg PUBLIC "-//W3C//DTD SVG 1.1//EN" "http://www.w3.org/Graphics/SVG/1.1/DTD/svg11.dtd"><svg t="1694334049036" class="jp-icon3 jp-icon-selectable"  fill="#616161" viewBox="0 0 1024 1024" version="1.1" xmlns="http://www.w3.org/2000/svg" p-id="1116" xmlns:xlink="http://www.w3.org/1999/xlink" width="200" height="200"><path d="M512 988.8726645c-225.69701966 0-408.74799815-61.07376338-408.74799815-136.2493327 0-41.11323614 0-86.07551594 0-136.24933272 0-11.85369195 5.92684598-23.09426189 14.44242928-34.06233318 45.57540179 58.68940007 204.03337574 102.18699952 394.30556887 102.18699954s348.73016707-43.49759947 394.30556889-102.18699954c8.51558331 10.96807129 14.44242927 22.20864124 14.44242926 34.06233318 0 39.44418182 0 81.3067893 0 136.24933272 0 75.17556933-183.08504084 136.24933273-408.74799815 136.2493327zM512 716.37399908c-225.69701966 0-408.74799815-61.07376338-408.74799815-136.24933272 0-41.14729847 0-86.04145359 0-136.24933272 0-7.22121465 2.72498666-14.23805527 6.40371864-21.18677123l0 0c2.07780231-4.35997865 4.80278899-8.65183263 8.03871064-12.87556193 45.57540179 58.65533774 204.03337574 102.18699952 394.30556887 102.18699952s348.73016707-43.5316618 394.30556889-102.18699952c3.26998397 4.22372932 5.99497063 8.51558331 8.03871062 12.87556193l0 0c3.64466966 6.94871599 6.40371865 13.9655566 6.40371864 21.18677123 0 39.44418182 0 81.27272697 0 136.24933272 0 75.17556933-183.08504084 136.24933273-408.74799815 136.24933272zM512 443.87533364c-225.69701966 0-408.74799815-61.03970107-408.74799815-136.24933272 0-21.52739457 0-44.28103314 0-68.12466636 0-21.66364389 0-44.1447838 0-68.12466636 0-75.20963167 183.0509785-136.24933273 408.74799815-136.2493327s408.74799815 61.03970107 408.74799815 136.2493327c0 21.2548959 0 43.80416047 0 68.12466636 0 20.84614789 0 42.85041513 0 68.12466636 0 75.20963167-183.08504084 136.24933273-408.74799815 136.24933272zM512 103.25200185c-150.48738799 0-272.49866544 30.45172585-272.49866544 68.12466635s122.01127744 68.12466636 272.49866544 68.12466636 272.49866544-30.45172585 272.49866544-68.12466636-122.01127744-68.12466636-272.49866544-68.12466635z" p-id="1117"></path></svg>