<?xml version="1.0" standalone="no"?><!DOCTYPE svg PUBLIC "-//W3C//DTD SVG 1.1//EN" "http://www.w3.org/Graphics/SVG/1.1/DTD/svg11.dtd"><svg t="1694709795449" viewBox="0 0 1024 1024" version="1.1" xmlns="http://www.w3.org/2000/svg" p-id="1144" xmlns:xlink="http://www.w3.org/1999/xlink" width="200" height="200"><path class="jp-icon-selectable" d="M803.27111111 75.09333333a145.63555555 145.63555555 0 0 1 145.63555556 145.63555556v582.54222222a145.63555555 145.63555555 0 0 1-145.63555556 145.63555556H220.72888889a145.63555555 145.63555555 0 0 1-145.63555556-145.63555556V220.72888889a145.63555555 145.63555555 0 0 1 145.63555556-145.63555556h582.54222222z m0 72.81777778H220.72888889a72.81777778 72.81777778 0 0 0-72.4779611 65.82727111L147.91111111 220.72888889v582.54222222a72.81777778 72.81777778 0 0 0 65.82727111 72.4779611L220.72888889 876.08888889h582.54222222a72.81777778 72.81777778 0 0 0 72.4779611-65.82727111L876.08888889 803.27111111V220.72888889a72.81777778 72.81777778 0 0 0-65.82727111-72.4779611L803.27111111 147.91111111z" fill="#0091FF" p-id="1145"></path><path class="jp-icon-selectable" d="M265.48755001 648.65469667c34.12726557 0 59.61348779-7.08759666 76.50721109-21.16570112 16.89372445-14.07810333 25.34058667-35.43798557 25.34058667-63.98255445 0-21.02006557-5.38851555-38.35069667-16.1170011-52.18607331-10.77703111-13.73828779-27.52512-24.80659001-50.29281224-33.15636224l-24.07841109-9.12649444c-16.6509989-6.1652389-27.67075555-11.84502557-32.86509113-16.99081444a26.02021888 26.02021888 0 0 1-7.91286442-19.41807445c0-10.0973989 3.64088889-17.86462777 10.82557554-23.30168889 7.23323221-5.43706112 17.57335666-8.15559111 31.06891889-8.15559111 12.13629667 0 24.41822777 2.2330789 36.79724999 6.65068999 12.42756779 4.36906667 24.61240889 10.8741211 36.60307001 19.32098446V372.52968334a201.17124779 201.17124779 0 0 0-38.64196779-13.15574556 175.10248334 175.10248334 0 0 0-39.07887331-4.46615666c-28.69020445 0-51.26371555 7.28177778-67.72053333 21.99096889-16.40827221 14.66064555-24.66095445 34.80689778-24.66095446 60.48729998 0 20.00061667 5.00015445 35.87489223 15.04900779 47.67137223 9.95176334 11.84502557 29.03002112 23.10750777 57.23477333 33.88453888l27.47657444 10.43721557c9.61194667 3.64088889 16.99081443 8.68958777 21.99096889 15.04900666a34.85544334 34.85544334 0 0 1 7.62159445 22.33078556c0 11.16539221-3.83507001 19.95207111-11.4081189 26.2144-7.57304889 6.26232889-18.25299001 9.36922112-32.03982222 9.36922112-13.64119666 0-27.47657443-2.57289443-41.40904334-7.76723001a188.79222557 188.79222557 0 0 1-43.35084999-23.69004999v57.81731556a188.64659001 188.64659001 0 0 0 83.01226667 19.90352554z m291.85365333 47.76846223l38.30215111-28.4474789-35.29235-34.4670811c15.19464334-9.66049223 26.69985223-25.68040334 34.70980778-48.1082789 7.96140999-22.42787555 11.94211555-50.29281223 11.94211556-83.4977189 0-48.44809443-8.34977223-85.05116445-25.14640669-109.85775331-16.74808889-24.75804445-41.5546789-37.13706667-74.41976889-37.13706667-32.71945443 0-57.47749888 12.37902222-74.22558776 37.13706667s-25.14640555 61.40965888-25.14640555 109.80920888c0 48.30245888 8.39831666 84.85698333 25.14640555 109.61502778 16.74808889 24.75804445 41.36049778 37.18561223 73.83722666 37.18561222a22.47642112 22.47642112 0 0 0 3.5437989-0.2912711l4.41761109-0.87381334 42.33140224 48.93354667z m-49.90445113-98.06127445c-14.27228445 0-24.70949888-7.57304889-31.26309888-22.81623666-6.60214557-15.24318777-9.85467221-39.80705223-9.85467221-73.69159112 0-33.98163001 3.25252779-58.64258333 9.85467221-73.83722666 6.5536-15.24318777 16.99081443-22.86478222 31.26309888-22.86478222 14.41792 0 24.90368 7.62159445 31.50582557 22.81623666 6.5536 15.24318777 9.85467221 39.90414222 9.85467221 73.88577222 0 33.88453888-3.30107221 58.44840334-9.85467221 73.69159112-6.60214557 15.24318777-17.08790557 22.81623666-31.50582557 22.81623666z m335.25304889 44.75866112v-49.27336335h-119.61533553V360.00502557h-55.9725989v283.11552h175.58793443z" fill="#0091FF" p-id="1146"></path></svg>