<?xml version="1.0" standalone="no"?><!DOCTYPE svg PUBLIC "-//W3C//DTD SVG 1.1//EN" "http://www.w3.org/Graphics/SVG/1.1/DTD/svg11.dtd"><svg t="1695519710469" class="jp-icon-selectable" fill="#1296db" viewBox="0 0 1024 1024" version="1.1" xmlns="http://www.w3.org/2000/svg" p-id="2016" xmlns:xlink="http://www.w3.org/1999/xlink" width="200" height="200"><path d="M861.44 53.12c-41.28-36.48-91.2-22.08-140.16 22.08-7.68 6.72-14.4 13.44-22.08 21.12-11.52 12.48-23.04 25.92-33.6 40.32-11.52-4.8-24-7.68-37.44-7.68H219.2c-53.76 0-97.92 44.16-97.92 97.92v408.96c0 53.76 44.16 97.92 97.92 97.92h288c3.84 19.2 5.76 32.64 5.76 32.64s0 3.84 0.96 8.64c-1.92 36.48-0.96 74.88 1.92 109.44 3.84 46.08 10.56 85.44 20.16 106.56l5.76-2.88c-13.44-41.28-19.2-96-16.32-158.4 3.84-96 25.92-211.2 66.24-332.16 69.12-182.4 164.16-328.32 252.48-397.44-80.64 72-188.16 305.28-220.8 391.68-36.48 96.96-61.44 187.2-77.76 274.56 26.88-81.6 113.28-116.16 113.28-116.16s42.24-51.84 92.16-126.72c-29.76 6.72-77.76 18.24-94.08 24.96-24 10.56-30.72 13.44-30.72 13.44S704 514.88 771.2 492.8c90.24-144.96 191.04-350.4 90.24-439.68zM512 477.44c9.6 19.2 17.28 44.16 22.08 62.4 0.96 4.8 1.92 9.6 2.88 13.44 1.92 8.64 2.88 15.36 2.88 15.36l-3.84-11.52c-0.96-1.92-0.96-3.84-1.92-5.76 0-0.96-0.96-1.92-0.96-2.88-5.76-12.48-21.12-39.36-27.84-51.84-5.76 17.28-10.56 32.64-15.36 47.04 19.2 35.52 30.72 96 30.72 96s-0.96-3.84-5.76-17.28c-3.84-12.48-25.92-49.92-30.72-58.56-8.64 31.68-12.48 53.76-8.64 59.52 4.8 7.68 8.64 20.16 13.44 33.6H219.2c-10.56 0-20.16-8.64-20.16-20.16V226.88c0-10.56 8.64-20.16 20.16-20.16H617.6c-49.92 85.44-89.28 187.2-105.6 270.72z" p-id="2017"></path></svg>