<?xml version="1.0" standalone="no"?><!DOCTYPE svg PUBLIC "-//W3C//DTD SVG 1.1//EN" "http://www.w3.org/Graphics/SVG/1.1/DTD/svg11.dtd"><svg t="1692879980075" class="jp-icon-selectable" fill="#1296db" viewBox="0 0 1024 1024" version="1.1" xmlns="http://www.w3.org/2000/svg" p-id="875" xmlns:xlink="http://www.w3.org/1999/xlink" width="200" height="200" ><path d="M126.97136354 71.96727352L897.02863646 71.96727352C957.53313599 71.96727352 1007.03681774 121.4709553 1007.03681774 181.97545482L1007.03681774 842.02454518C1007.03681774 902.5290447 957.53313599 952.03272648 897.02863646 952.03272648L126.97136354 952.03272648C66.46686401 952.03272648 16.96318226 902.5290447 16.96318226 842.02454518L16.96318226 181.97545482C16.96318226 121.4709553 66.46686401 71.96727352 126.97136354 71.96727352M126.97136354 291.98363612L126.97136354 512 456.99590871 512 456.99590871 291.98363612 126.97136354 291.98363612M567.00409129 291.98363612L567.00409129 512 897.02863646 512 897.02863646 291.98363612 567.00409129 291.98363612M126.97136354 622.0081813L126.97136354 842.02454518 456.99590871 842.02454518 456.99590871 622.0081813 126.97136354 622.0081813M567.00409129 622.0081813L567.00409129 842.02454518 897.02863646 842.02454518 897.02863646 622.0081813 567.00409129 622.0081813Z" p-id="876"></path></svg>