<?xml version="1.0" standalone="no"?><!DOCTYPE svg PUBLIC "-//W3C//DTD SVG 1.1//EN" "http://www.w3.org/Graphics/SVG/1.1/DTD/svg11.dtd"><svg t="1695905863215" class="jp-icon-selectable" fill="#1296db" viewBox="0 0 1024 1024" version="1.1" xmlns="http://www.w3.org/2000/svg" p-id="2075" xmlns:xlink="http://www.w3.org/1999/xlink" width="200" height="200"><path d="M115.98 71.97c-54.457 0-99.02 44.553-99.02 99.01v594.07c0 54.457 44.563 99.01 99.02 99.01h229.33a373.65 247.17 0 0 1-39.17-99.01H115.98V567.03h297.03v12.95a373.65 247.17 0 0 1 266.35-73.82 373.65 247.17 0 0 1 228.71 51.72v-386.9c0-54.457-44.553-99.01-99.01-99.01H115.98z m0 198.02h297.03v198.03H115.98V269.99z m396.04 0h297.04v198.03H512.02V269.99z" p-id="2076"></path><path d="M674.661 788.913a32.868 34.015 0 0 1 0-68.031 32.868 34.015 0 1 1 0 68.03z m0 68.03a98.603 102.046 0 0 0 0-204.092 98.603 102.046 0 1 0 0 204.093z m0 34.016c-102.875 0-187.148-44.662-255.118-136.062 67.97-91.399 152.243-136.061 255.118-136.061 102.876 0 187.148 44.662 255.118 136.061-67.97 91.4-152.242 136.062-255.118 136.062z m0 68.03c132.095 0 240.624-62.35 322.793-184.703a32.868 34.015 0 0 0 0-38.777c-82.17-122.32-190.665-184.704-322.793-184.704-132.095 0-240.623 62.35-322.792 184.704a32.868 34.015 0 0 0 0 38.777C434.038 896.606 542.534 958.99 674.66 958.99z" fill="#ea6f0c" p-id="2077"></path></svg>